<svg xmlns="http://www.w3.org/2000/svg" width="19.625" height="35.09" viewBox="0 0 19.625 35.09">
  <defs>
    <style>
      .cls-1 {
        fill: #fff;
        fill-rule: evenodd;
      }
    </style>
  </defs>
  <path id="Shape_3_copy_3" data-name="Shape 3 copy 3" class="cls-1" d="M327.305,3876.9H313.083a2.713,2.713,0,0,0-2.7,2.73v29.64a2.713,2.713,0,0,0,2.7,2.73h14.222a2.713,2.713,0,0,0,2.695-2.73v-29.64A2.713,2.713,0,0,0,327.305,3876.9Zm1.433,32.37a1.443,1.443,0,0,1-1.433,1.45H313.083a1.444,1.444,0,0,1-1.435-1.45v-2.8h17.09v2.8Zm0-4.08h-17.09v-22.13h17.09v22.13Zm0-23.41h-17.09v-2.15a1.444,1.444,0,0,1,1.435-1.45h14.222a1.443,1.443,0,0,1,1.433,1.45v2.15Zm-10.972,27.35h4.883a0.64,0.64,0,0,0,0-1.28h-4.883A0.64,0.64,0,0,0,317.766,3909.13Z" transform="translate(-310.375 -3876.91)"/>
</svg>
