<svg xmlns="http://www.w3.org/2000/svg" width="24.969" height="33.31" viewBox="0 0 24.969 33.31">
  <defs>
    <style>
      .cls-1 {
        fill: #fff;
        fill-rule: evenodd;
      }
    </style>
  </defs>
  <path class="cls-1" d="M693.48,3909.3a3.668,3.668,0,0,1-3.126-1.82c-0.329-.54-6.105-10.05-7.827-13.16A12.282,12.282,0,0,1,681,3888.4a12.5,12.5,0,0,1,12.476-12.4h0.011a12.5,12.5,0,0,1,12.476,12.4,12.283,12.283,0,0,1-1.529,5.92c-1.721,3.11-7.5,12.62-7.826,13.16A3.67,3.67,0,0,1,693.48,3909.3Zm0-31.63a10.82,10.82,0,0,0-10.786,10.73,10.649,10.649,0,0,0,1.321,5.12c1.718,3.1,7.738,13.01,7.8,13.11a0.173,0.173,0,0,0,.022.04,1.891,1.891,0,0,0,3.292,0l0.019-.04c0.06-.1,6.08-10.01,7.8-13.11a10.649,10.649,0,0,0,1.321-5.12A10.819,10.819,0,0,0,693.48,3877.67Zm0,16.91a6.26,6.26,0,1,1,6.338-6.26A6.3,6.3,0,0,1,693.48,3894.58Zm0-10.84a4.585,4.585,0,1,0,4.642,4.58A4.62,4.62,0,0,0,693.48,3883.74Z" transform="translate(-681 -3876)"/>
</svg>
