<svg xmlns="http://www.w3.org/2000/svg" width="31.03" height="37.03" viewBox="0 0 31.03 37.03">
  <defs>
    <style>
      .cls-1 {
        fill: #b6adca;
        fill-rule: evenodd;
      }
    </style>
  </defs>
  <path class="cls-1" d="M1135.93,1830.8h-31.02v-9.25a6.407,6.407,0,0,1,3.7-5.8l7.92-4.06,0.81,1.59-7.94,4.07a4.641,4.641,0,0,0-2.71,4.2v7.47h27.45v-7.47a4.646,4.646,0,0,0-2.67-4.19l-7.93-4.08,0.82-1.59,7.89,4.07a6.414,6.414,0,0,1,3.68,5.79v9.25Zm-15.51-16.47c-0.17,0-.35-0.01-0.53-0.02a8.06,8.06,0,0,1-7.4-8.14v-3.18l0.72-.14c3.64-.7,7.19-1.79,8.54-4.99l1.64,0.69c-1.58,3.74-5.26,5.09-9.12,5.9v1.72a6.288,6.288,0,0,0,5.74,6.37,6.144,6.144,0,0,0,6.55-6.13v-3.12a12.418,12.418,0,0,1-3.5-1.56l0.91-1.53a7.909,7.909,0,0,0,3.48,1.41h0.9v4.8a7.962,7.962,0,0,1-2.51,5.78A7.87,7.87,0,0,1,1120.42,1814.33Zm11.1,1.6h-1.78v-11.06a9.32,9.32,0,0,0-18.64,0v10.71h-1.78v-10.71a11.1,11.1,0,0,1,22.2,0v11.06Zm-11.1,9.11-6.13-11.17,1.56-.86,4.57,8.33,4.56-8.33,1.56,0.86Z" transform="translate(-1104.91 -1793.78)"/>
</svg>
