<svg xmlns="http://www.w3.org/2000/svg" width="32.969" height="37.03" viewBox="0 0 32.969 37.03">
  <defs>
    <style>
      .cls-1 {
        fill: #a99fc0;
        fill-rule: evenodd;
      }
    </style>
  </defs>
  <path class="cls-1" d="M494.952,1828.82H461.966v-9.25a6.428,6.428,0,0,1,3.769-5.81l8.8-4.07,0.772,1.61-8.8,4.07a4.651,4.651,0,0,0-2.725,4.2v7.47H493.14v-7.47a4.651,4.651,0,0,0-2.722-4.2l-8.751-4.07,0.776-1.61,8.746,4.07a6.433,6.433,0,0,1,3.763,5.81v9.25Zm-23.476-26.21-0.344-1.75c3.7-.7,7.306-1.79,8.68-4.99l1.669,0.7C479.778,1800.53,475.666,1801.81,471.476,1802.61Zm14.138-1.21a9.682,9.682,0,0,1-4.469-1.66l0.925-1.53a8,8,0,0,0,3.544,1.41v1.78Zm-7.148,10.94a4.928,4.928,0,0,1-.542-0.02,8.108,8.108,0,0,1-7.526-8.14v-5.2a7.263,7.263,0,0,1,7.312-7.19h1.5a7.263,7.263,0,0,1,7.312,7.19v5.44a7.885,7.885,0,0,1-2.549,5.78A8.067,8.067,0,0,1,478.466,1812.34Zm-0.756-18.77a5.464,5.464,0,0,0-5.5,5.41v5.2a6.268,6.268,0,0,0,10.521,4.72,6.017,6.017,0,0,0,1.977-4.48v-5.44a5.464,5.464,0,0,0-5.5-5.41h-1.5Zm0.749,29.05-3.925-3.86,3.925-3.85,3.925,3.85Zm-1.362-3.86,1.362,1.34,1.362-1.34-1.362-1.34Zm-0.968,9.55-1.64-.76,3.15-6.57,1.64,0.76Zm4.66,0-3.15-6.57,1.64-.76,3.15,6.57Z" transform="translate(-461.969 -1791.78)"/>
</svg>
