<svg xmlns="http://www.w3.org/2000/svg" width="32.844" height="32.84" viewBox="0 0 32.844 32.84">
  <defs>
    <style>
      .cls-1 {
        fill: #b6adca;
        fill-rule: evenodd;
      }
    </style>
  </defs>
  <path id="Shape_360_copy" data-name="Shape 360 copy" class="cls-1" d="M797.413,1833a16.415,16.415,0,1,1,16.417-16.42A16.433,16.433,0,0,1,797.413,1833Zm0-30.87a14.45,14.45,0,1,0,14.451,14.45A14.466,14.466,0,0,0,797.413,1802.13Zm0,30.87c-5.41,0-9.648-7.21-9.648-16.42s4.238-16.41,9.648-16.41,9.647,7.21,9.647,16.41S802.822,1833,797.413,1833Zm0-30.87c-4.164,0-7.682,6.62-7.682,14.45s3.518,14.45,7.682,14.45,7.681-6.61,7.681-14.45S801.576,1802.13,797.413,1802.13Zm0.983,29.89H796.43v-30.87H798.4v30.87Zm14.451-14.45H781.979v-1.97h30.868v1.97Zm-15.434-6.77a22.773,22.773,0,0,1-12.4-3.29l1.1-1.63a23.135,23.135,0,0,0,22.609,0l1.1,1.63A22.765,22.765,0,0,1,797.413,1810.8Zm11.3,16.48a23.2,23.2,0,0,0-22.609,0l-1.1-1.63a25.085,25.085,0,0,1,24.8,0Z" transform="translate(-781 -1800.16)"/>
</svg>
