<svg xmlns="http://www.w3.org/2000/svg" width="33.94" height="38" viewBox="0 0 33.94 38">
  <defs>
    <style>
      .cls-1 {
        fill: #b6adca;
        fill-rule: evenodd;
      }
    </style>
  </defs>
  <path class="cls-1" d="M1436.48,1834.96h-10.49v-24.22h10.49v24.22Zm-8.68-1.81h6.88v-20.61h-6.88v20.61Zm27.21,1.81h-14.76l-4.98-1.85,0.62-1.69,4.69,1.73h14.43a2.3,2.3,0,0,0,2.3-2.19l0.81-16a2.307,2.307,0,0,0-2.3-2.42h-12.29l0.64-1.3c2.12-4.3,2.6-5.74,2.49-10.03a2.522,2.522,0,0,0-2.5-2.44,0.089,0.089,0,0,0-.09.07,15.884,15.884,0,0,1-4.67,10.3l-3.18,3.14-1.28-1.28,3.19-3.15a14.036,14.036,0,0,0,4.13-9.12,1.894,1.894,0,0,1,1.9-1.76,4.335,4.335,0,0,1,4.31,4.2,17.225,17.225,0,0,1-2.04,9.57h9.39a4.087,4.087,0,0,1,4.1,4.31l-0.81,16A4.109,4.109,0,0,1,1455.01,1834.96Zm3.9-16.81h-6.69v-1.81h6.69v1.81Zm-0.28,5.6h-6.69v-1.81h6.69v1.81Zm-0.29,5.6h-6.68v-1.81h6.68v1.81Zm-26.2,1.09h-1.81v-2.63h1.81v2.63Z" transform="translate(-1426 -1796.97)"/>
</svg>
