<svg xmlns="http://www.w3.org/2000/svg" width="37.031" height="37.04" viewBox="0 0 37.031 37.04">
  <defs>
    <style>
      .cls-1 {
        fill: #fcac02;
        fill-rule: evenodd;
      }
    </style>
  </defs>
  <path class="cls-1" d="M339.233,1306.88H313.2v-17.39h1.781v15.6h24.253v1.79Zm-5.129-33.61h-1.781v-1.64h-6.474v1.64h-1.781v-3.42H334.1v3.42Zm14.805,33.61H338.343V1289.1h1.781v15.99h7v-25.5a3.5,3.5,0,1,0-7,0v8.01H311.887v-8.01a5.291,5.291,0,0,1,5.283-5.29h26.456a5.291,5.291,0,0,1,5.283,5.29v27.29Zm-35.241-21.06h24.675v-6.23a5.284,5.284,0,0,1,1.331-3.51h-22.5a3.507,3.507,0,0,0-3.5,3.51v6.23Zm30.849,20.16h-1.781v-25h1.781v25Zm-22.185-15.6h-3.42v-1.78h3.42v1.78Zm10.766,0h-3.42v-1.78h3.42v1.78Z" transform="translate(-311.875 -1269.84)"/>
</svg>
