<svg xmlns="http://www.w3.org/2000/svg" width="37.969" height="37.97" viewBox="0 0 37.969 37.97">
  <defs>
    <style>
      .cls-1 {
        fill: #fcac02;
        fill-rule: evenodd;
      }
    </style>
  </defs>
  <path class="cls-1" d="M743.64,1308.98a18.655,18.655,0,1,1,7.116-35.9l-0.693,1.67a16.86,16.86,0,1,0,9.1,9.03l1.665-.71A18.656,18.656,0,0,1,743.64,1308.98Zm0-4.83a13.825,13.825,0,1,1,4.741-26.81l-0.621,1.7a12,12,0,1,0,7.175,7.19l1.7-.61A13.823,13.823,0,0,1,743.64,1304.15Zm0-4.83a8.99,8.99,0,1,1,0-17.98,8.834,8.834,0,0,1,3.621.76l-0.729,1.65a7.185,7.185,0,1,0,4.289,6.58,7.083,7.083,0,0,0-.607-2.89l1.654-.73a8.888,8.888,0,0,1,.762,3.62A9.005,9.005,0,0,1,743.64,1299.32Zm0-4.84a4.155,4.155,0,1,1,0-8.31v1.8a2.355,2.355,0,1,0,2.35,2.36H747.8A4.159,4.159,0,0,1,743.64,1294.48Zm-12.186,14.13-1.461-1.07,2.477-3.4,1.461,1.06Zm24.373,0-2.478-3.41,1.462-1.06,2.477,3.4Zm-11.548-17.65L743,1289.69l12.865-12.87,1.279,1.28Zm6.623-6.62-0.881-6.8,6.555-6.55,0.881,6.8Zm1.025-6.15,0.295,2.27,3.329-3.32-0.3-2.28Zm4.5,5.75-6.8-.88,6.557-6.55,6.8,0.88Zm-2.923-2.2,2.274,0.3,3.328-3.33-2.273-.3Z" transform="translate(-725 -1271)"/>
</svg>
